<svg xmlns="http://www.w3.org/2000/svg" version="1.1" xmlns:xlink="http://www.w3.org/1999/xlink" xmlns:svgjs="http://svgjs.dev/svgjs" width="100%" height="100%" viewBox="0 0 1000 600"><rect width="1000" height="600" x="0" y="0" fill="#e9f4f6"/><g><rect width="333.3333333333333" height="333.3333333333333" y="171.20306471657875" fill="#238ca9" transform="matrix(0.8390340374832721,0,0,0.8390340374832721,0,16.515795134126975)" x="148.98080444335935"/><path d="M324.0156963624421 412.8697270227714Q312.2210109565897 412.8697270227714 300.016787863034 402.4401672425962L300.016787863034 402.4401672425962L298.4605446497618 410.30329084649793L270.14783917321313 410.30329084649793L296.876998923976 285.28508604696424L325.98147726341756 281.35352424501343L302.3921064517126 391.6283722872314Q307.8799114669356 395.5599340891823 313.58613658226705 395.5599340891823L313.58613658226705 395.5599340891823Q324.7801667128215 395.5599340891823 333.3531556420753 382.59124064524724Q341.8988420588157 369.6225472013123 346.62217672365944 349.55520050385485Q351.3182088759895 329.51515631891107 351.3182088759895 309.065574446264L351.3182088759895 309.065574446264Q351.3182088759895 289.79000061169955 343.75541290973695 280.86207901976957Q336.19261694348427 271.906854915326 322.6232682242512 271.906854915326L322.6232682242512 271.906854915326Q307.8799114669356 271.906854915326 296.1944361111373 277.72229008071156Q284.48165824282546 283.51042273358365 277.8198451895199 294.3222176889484Q271.13072962370074 305.1340126443132 271.13072962370074 319.686251814034L271.13072962370074 319.686251814034Q271.13072962370074 326.9487201426376 272.4958552493781 329.8154839565601Q273.8882833875691 332.65494525796896 273.8882833875691 333.0371804331587L273.8882833875691 333.0371804331587Q263.64984119498877 333.0371804331587 258.24394371730637 328.72338345601815Q252.83804623962402 324.4095864788777 252.83804623962402 314.77179956159546L252.83804623962402 314.77179956159546Q252.83804623962402 301.3935684299572 262.85806833209597 289.40776543650986Q272.9053929370814 277.42196244306257 289.69643813291304 270.1321916019454Q306.51478584125823 262.86972327334183 325.98147726341756 262.86972327334183L325.98147726341756 262.86972327334183Q352.90175460177534 262.86972327334183 365.6793304581155 278.78708806874Q378.45690631445564 294.70445286413803 378.45690631445564 319.4951342264392L378.45690631445564 319.4951342264392Q378.45690631445564 341.88319448754805 370.89411034820307 363.6159944483318Q363.3313143819504 385.3487944091155 350.74485611320506 399.1092607159434Q338.1583978444597 412.8697270227714 324.0156963624421 412.8697270227714L324.0156963624421 412.8697270227714Z " fill="#ffffff" transform="matrix(0.8390340374832721,0,0,0.8390340374832721,0,16.515795134126975)"/><path d="M649.7474373305341 412.8697199574152Q634.5083938427099 412.8697199574152 634.5083938427099 399.7766380302651L634.5083938427099 399.7766380302651Q634.5083938427099 395.4847149089171 635.7579410805707 389.88891640893166Q637.0346523888198 384.3202819793346 639.3979265126001 375.5191231735324L639.3979265126001 375.5191231735324Q642.1143335514279 366.3376673822943 643.49970114123 359.8726186298841Q644.857904660644 353.4347339478621 644.857904660644 348.3278887148657L644.857904660644 348.3278887148657Q644.857904660644 335.0446582949976 633.1230262529076 335.0446582949976L633.1230262529076 335.0446582949976Q629.9991581582557 335.0446582949976 626.6851415708858 335.83241633625767L626.6851415708858 335.83241633625767L611.0386370272373 409.5557033700453L582.8694960345925 409.5557033700453L609.4631209447172 285.1714250621184L638.420019978622 281.25979892620626L628.8311031315596 326.4336479819133L630.3794551436916 326.4336479819133Q638.0125589227978 326.4336479819133 644.4776076752081 321.16381832658726Q650.91549235723 315.866824600873 654.5554777892594 307.96208011788394Q658.1682991509005 300.03017156450665 658.1682991509005 292.39706778540045L658.1682991509005 292.39706778540045Q658.1682991509005 283.4057604868803 652.7898132140213 277.6469775645653Q647.4113272771422 271.861030571862 636.6543554033839 271.861030571862L636.6543554033839 271.861030571862Q620.8177023670175 271.861030571862 608.8655113961751 277.5383212830121Q596.9404844957209 283.2156119941624 590.3939435321457 293.97258386792066Q583.8474025685706 304.72955574167884 583.8474025685706 319.39815375134924L583.8474025685706 319.39815375134924Q583.8474025685706 326.62379647463126 585.2056060879846 329.4760238654005Q586.5909736777868 332.3010871857815 586.5909736777868 332.68138417121736L586.5909736777868 332.68138417121736Q576.0241502967464 332.68138417121736 570.8358128525853 328.2808047683162Q565.6474754084242 323.8802253654152 565.6474754084242 313.720863040199L565.6474754084242 313.720863040199Q565.6474754084242 301.1982265912027 575.9154940151933 289.38185597230154Q586.1835126219626 277.5383212830121 602.2374782214351 270.204022278177Q618.2642797505194 262.86972327334183 634.2910812796036 262.86972327334183L634.2910812796036 262.86972327334183Q648.959679289274 262.86972327334183 658.9560571921605 267.1616463946898Q668.9252710246586 271.480733586426 673.8148036945488 278.62488409854325Q678.7043363644389 285.7418705402722 678.7043363644389 294.16273236063853L678.7043363644389 294.16273236063853Q678.7043363644389 303.34418815187666 673.0270456532887 312.55280801350307Q667.3497549421385 321.7342638047412 657.5706896023582 327.6017030086093L657.5706896023582 327.6017030086093Q665.0136448887465 329.7476645692833 668.0288567018455 334.74585352072654Q671.0712325853326 339.7440424721698 671.0712325853326 347.1598336881698L671.0712325853326 347.1598336881698Q671.0712325853326 352.8371243993199 669.7130290659187 359.19351687017706Q668.3276614761165 365.5499093410342 665.8014029300066 374.9486776953786L665.8014029300066 374.9486776953786Q664.2258868474864 381.0062653919647 662.8676833280725 386.8737045958328Q661.4823157382704 392.7411437997009 661.4823157382704 396.65276993561304L661.4823157382704 396.65276993561304Q661.4823157382704 401.134841549679 663.5467850877795 404.66617070015513Q665.5840903669005 408.1974998506314 669.1154195173766 409.5557033700453L669.1154195173766 409.5557033700453Q657.1903926169224 412.8697199574152 649.7474373305341 412.8697199574152L649.7474373305341 412.8697199574152ZM705.4881097672813 410.72375839674123Q694.3508409080872 410.72375839674123 686.9078856216989 403.090654617635Q679.4920944056989 395.4847149089171 679.4920944056989 379.24060081672656L679.4920944056989 379.24060081672656Q679.4920944056989 364.76215129977413 685.250877328014 348.81684198185474Q691.009660250329 332.8986967343236 702.4728979541825 321.84292008629427Q713.9089715876477 310.78714343826493 729.745624624014 310.78714343826493L729.745624624014 310.78714343826493Q737.7590253885561 310.78714343826493 741.6706515244683 313.530714547481Q745.5822776603803 316.2742856566972 745.5822776603803 320.75635727076315L745.5822776603803 320.75635727076315L745.5822776603803 322.1417248605653L747.7282392210543 311.765049972243L775.8973802136991 311.765049972243L761.8263917525709 378.2626942827486Q761.0386337113108 381.19641388468256 761.0386337113108 384.5104304720526L761.0386337113108 384.5104304720526Q761.0386337113108 392.9312922924189 769.0520344758529 392.9312922924189L769.0520344758529 392.9312922924189Q774.5391766942852 392.9312922924189 778.5322950413621 387.85161112981086Q782.5525774588273 382.7719299672027 784.8886875122192 374.54121663955436L784.8886875122192 374.54121663955436L793.1194008398676 374.54121663955436Q785.8665940461973 395.674863401635 775.2182784539921 403.19931089918816Q764.569962861787 410.72375839674123 753.8129909880287 410.72375839674123L753.8129909880287 410.72375839674123Q745.5822776603803 410.72375839674123 740.6112527793254 406.1330305011222Q735.6130638278822 401.5423026055032 734.6351572939042 392.7411437997009L734.6351572939042 392.7411437997009Q728.9578665827539 400.75454456424313 722.031028633743 405.75273351568626Q715.0770266143437 410.72375839674123 705.4881097672813 410.72375839674123L705.4881097672813 410.72375839674123ZM718.2008947089956 391.763237265723Q723.0904273788858 391.763237265723 727.8984678376111 387.17250937010385Q732.6793442259481 382.5546174040966 734.4450088011862 374.54121663955436L734.4450088011862 374.54121663955436L743.8166130851422 330.3452741178254Q743.8166130851422 327.7918515013272 741.8608000171862 325.34708516638216Q739.9049869492302 322.9023188314371 735.8032123206001 322.9023188314371L735.8032123206001 322.9023188314371Q727.979960048776 322.9023188314371 721.7322238594719 332.00228241151035Q715.4573235997796 341.1022459915837 711.9531585196917 353.92368721485104Q708.4218293692155 366.71796436773025 708.4218293692155 376.4970297075105L708.4218293692155 376.4970297075105Q708.4218293692155 386.2760950472907 711.2740567599848 389.0196661565068Q714.0991200803657 391.763237265723 718.2008947089956 391.763237265723L718.2008947089956 391.763237265723ZM855.5152705217431 410.72375839674123Q843.5630795509006 410.72375839674123 837.9944451213036 404.3673659258841Q832.4258106917065 398.01097345502694 832.4258106917065 388.63936917107094L832.4258106917065 388.63936917107094Q832.4258106917065 384.5104304720526 833.4037172256845 379.34925709827974Q834.3816237596625 374.1609196541185 835.4681865751937 369.27138698422834Q836.5275853203365 364.3818543143383 836.9350463761607 362.9964867245361L836.9350463761607 362.9964867245361Q838.4833983882926 356.15114098668994 839.8687659780948 349.52310781195Q841.2269694975087 342.8679105668217 841.2269694975087 338.7661359381917L841.2269694975087 338.7661359381917Q841.2269694975087 328.76975803530524 834.1914752669446 328.76975803530524L834.1914752669446 328.76975803530524Q829.1117941043365 328.76975803530524 825.2001679684244 333.7679469867485Q821.2885418325124 338.7661359381917 818.9252677087321 346.7795367027338L818.9252677087321 346.7795367027338L805.6420372888639 409.5557033700453L777.4728962962192 409.5557033700453L805.8321857815819 276.5604147490341L834.7619207450983 272.64878861312206L824.2222614344463 321.92441229745907Q834.0013267742266 310.9772919309829 847.0944087013769 310.9772919309829L847.0944087013769 310.9772919309829Q857.063622533875 310.9772919309829 862.9310617377431 316.46443414941507Q868.7985009416112 321.92441229745907 868.7985009416112 333.0888452270415L868.7985009416112 333.0888452270415Q868.7985009416112 338.7661359381917 867.4402974221973 345.6929738872027Q866.054929832395 352.64697590660194 863.5286712862852 362.61618973910015L863.5286712862852 362.61618973910015Q861.953155203765 368.67377743568625 860.676443895516 374.45972442838956Q859.4268966576552 380.2185073507046 859.4268966576552 383.5325239380745L859.4268966576552 383.5325239380745Q859.4268966576552 387.44415007398663 861.165397162505 389.6172757050489Q862.9310617377431 391.763237265723 867.2501489294795 391.763237265723L867.2501489294795 391.763237265723Q873.1175881333476 391.763237265723 876.6217532134355 387.5528063555398Q880.1530823639117 383.34237544535665 883.6572474439996 374.54121663955436L883.6572474439996 374.54121663955436L891.887960771648 374.54121663955436Q884.6351539779776 396.05516038707094 875.1548934124684 403.38945939190603Q865.6746328469593 410.72375839674123 855.5152705217431 410.72375839674123L855.5152705217431 410.72375839674123ZM903.0252296308421 410.72375839674123Q893.6536253468861 410.72375839674123 887.8676783541827 404.8563191928731Q882.1088954318676 398.988879989005 882.1088954318676 387.25400158126865L882.1088954318676 387.25400158126865Q882.1088954318676 382.3644689113786 883.6572474439996 374.54121663955436L883.6572474439996 374.54121663955436L896.967641934256 311.765049972243L925.1367829269008 311.765049972243L911.0386303953842 378.2626942827486Q910.4681849172304 381.19641388468256 910.4681849172304 383.74983650118077L910.4681849172304 383.74983650118077Q910.4681849172304 391.763237265723 916.3356241210985 391.763237265723L916.3356241210985 391.763237265723Q921.7956022691425 391.763237265723 925.7072284050545 387.17250937010385Q929.6188545409666 382.5546174040966 931.9821286647468 374.54121663955436L931.9821286647468 374.54121663955436L945.265359084615 311.765049972243L973.4345000772597 311.765049972243L959.3635116161315 378.2626942827486Q958.5757535748716 381.19641388468256 958.5757535748716 384.5104304720526L958.5757535748716 384.5104304720526Q958.5757535748716 388.4220566079647 960.4229103612744 390.1062289720379Q962.2972312180656 391.763237265723 966.5891543394135 391.763237265723L966.5891543394135 391.763237265723Q972.0762965578458 391.763237265723 976.0694149049227 387.0638530885508Q980.0896973223879 382.3644689113786 982.4258073757799 374.54121663955436L982.4258073757799 374.54121663955436L990.6565207034283 374.54121663955436Q983.4037139097579 395.674863401635 972.7553983175527 403.19931089918816Q962.1070827253476 410.72375839674123 951.3501108515893 410.72375839674123L951.3501108515893 410.72375839674123Q942.9292490312231 410.72375839674123 937.9310600797797 406.02437421956904Q932.9600351987249 401.35215411278523 931.9821286647468 392.1435342511588L931.9821286647468 392.1435342511588Q925.3269314196186 402.9005061249171 917.9926324147834 406.8121322608291Q910.6583334099483 410.72375839674123 903.0252296308421 410.72375839674123L903.0252296308421 410.72375839674123ZM1001.7937895626225 410.72375839674123Q992.4221852786663 410.72375839674123 986.636238285963 404.8563191928731Q980.877455363648 398.988879989005 980.877455363648 387.25400158126865L980.877455363648 387.25400158126865Q980.877455363648 382.3644689113786 982.4258073757799 374.54121663955436L982.4258073757799 374.54121663955436L1003.3693056451426 276.5604147490341L1032.2990406086592 272.64878861312206L1009.8071903271644 378.2626942827486Q1009.0465963562928 381.19641388468256 1009.0465963562928 384.5104304720526L1009.0465963562928 384.5104304720526Q1009.0465963562928 388.4220566079647 1010.8937531426956 390.1062289720379Q1012.7409099290986 391.763237265723 1017.059997120835 391.763237265723L1017.059997120835 391.763237265723Q1022.7372878319851 391.763237265723 1027.626820501875 386.9551968069976Q1032.5163531717653 382.1743204186606 1034.6623147324394 374.54121663955436L1034.6623147324394 374.54121663955436L1042.8658639896994 374.54121663955436Q1035.6402212664175 395.674863401635 1024.2856398441172 403.19931089918816Q1012.9582224922048 410.72375839674123 1001.7937895626225 410.72375839674123L1001.7937895626225 410.72375839674123Z " fill="#238ca9" transform="matrix(0.8390340374832721,0,0,0.8390340374832721,0,16.515795134126975)"/></g></svg>